<?xml version="1.0" standalone="no"?><svg xmlns="http://www.w3.org/2000/svg" viewBox="0 0 1440 320"><path fill="#f3f4f5" fill-opacity="1" d="M0,192L9.6,170.7C19.2,149,38,107,58,112C76.8,117,96,171,115,186.7C134.4,203,154,181,173,176C192,171,211,181,230,165.3C249.6,149,269,107,288,106.7C307.2,107,326,149,346,149.3C364.8,149,384,107,403,101.3C422.4,96,442,128,461,154.7C480,181,499,203,518,197.3C537.6,192,557,160,576,144C595.2,128,614,128,634,149.3C652.8,171,672,213,691,224C710.4,235,730,213,749,208C768,203,787,213,806,202.7C825.6,192,845,160,864,138.7C883.2,117,902,107,922,112C940.8,117,960,139,979,122.7C998.4,107,1018,53,1037,32C1056,11,1075,21,1094,26.7C1113.6,32,1133,32,1152,80C1171.2,128,1190,224,1210,229.3C1228.8,235,1248,149,1267,149.3C1286.4,149,1306,235,1325,261.3C1344,288,1363,256,1382,245.3C1401.6,235,1421,245,1430,250.7L1440,256L1440,320L1430.4,320C1420.8,320,1402,320,1382,320C1363.2,320,1344,320,1325,320C1305.6,320,1286,320,1267,320C1248,320,1229,320,1210,320C1190.4,320,1171,320,1152,320C1132.8,320,1114,320,1094,320C1075.2,320,1056,320,1037,320C1017.6,320,998,320,979,320C960,320,941,320,922,320C902.4,320,883,320,864,320C844.8,320,826,320,806,320C787.2,320,768,320,749,320C729.6,320,710,320,691,320C672,320,653,320,634,320C614.4,320,595,320,576,320C556.8,320,538,320,518,320C499.2,320,480,320,461,320C441.6,320,422,320,403,320C384,320,365,320,346,320C326.4,320,307,320,288,320C268.8,320,250,320,230,320C211.2,320,192,320,173,320C153.6,320,134,320,115,320C96,320,77,320,58,320C38.4,320,19,320,10,320L0,320Z"></path></svg>